<svg width="21" height="32" viewBox="0 0 21 32" fill="none" xmlns="http://www.w3.org/2000/svg">
<g clip-path="url(#clip0_470001_73)">
<path fill-rule="evenodd" clip-rule="evenodd" d="M15.5972 15.7686C15.5683 15.9541 15.4977 16.1306 15.3908 16.285C15.284 16.4393 15.1436 16.5675 14.9802 16.6599C14.6511 16.8724 14.3631 16.9787 14.0718 17.0849C13.4513 17.2992 12.7983 17.5134 12.1076 17.762C11.3791 18.0105 10.7261 18.259 10.1433 18.439C9.4166 18.6875 8.72587 18.9018 8.06942 19.1503C7.57553 19.3616 7.11162 19.6371 6.68966 19.9696C6.29722 20.3251 5.95474 20.7322 5.67156 21.1796C5.38018 21.6767 5.19679 22.3177 5.19679 23.065C5.19679 24.5613 5.56015 25.6994 6.28859 26.4107C7.01532 27.1597 8.36251 27.5145 10.3593 27.5145C12.3955 27.5145 13.777 27.1237 14.5071 26.3404C15.2321 25.5571 15.5955 24.4551 15.5955 23.0325V15.7686H15.5972ZM10.361 0C13.9261 0 16.5433 0.677022 18.2145 2.06535C19.8873 3.41939 20.7237 5.16079 20.7237 7.22442V24.8099C20.7237 25.5212 20.5798 26.3044 20.3261 27.158C20.069 28.015 19.5616 28.7966 18.7612 29.5062C17.9985 30.2209 16.9444 30.8259 15.5989 31.2887C14.2535 31.7515 12.5086 32 10.3627 32C8.22025 32 6.47199 31.7515 5.12823 31.2887C3.78447 30.8259 2.72866 30.2209 1.96593 29.5062C1.2564 28.8668 0.718894 28.0593 0.402785 27.158C0.145688 26.3062 0 25.5229 0 24.8116V22.0006C0 20.5043 0.399357 19.116 1.19979 17.9042C2.00021 16.6599 3.1263 15.8063 4.58147 15.2716C5.30819 15.023 6.14462 14.7745 7.08902 14.454C8.03514 14.1318 8.90584 13.8112 9.77997 13.5284C10.6541 13.2422 11.4168 12.956 12.0698 12.7057C12.4639 12.5481 12.8642 12.4063 13.2696 12.2807L13.9244 11.9601C14.1815 11.8179 14.4334 11.6036 14.6888 11.3191C14.9425 11.0363 15.1601 10.7158 15.3435 10.3593C15.5373 9.97325 15.6371 9.54689 15.6349 9.11494V7.97515C15.6376 7.55741 15.5499 7.14403 15.3778 6.76336C15.2338 6.33487 14.9425 5.94408 14.5431 5.58929C14.1438 5.23278 13.597 4.94826 12.944 4.7323C12.2892 4.52148 11.4185 4.4135 10.4347 4.4135C8.3985 4.4135 7.05303 4.80771 6.3263 5.62357C5.70927 6.33658 5.3459 7.22614 5.27391 8.22196C5.27391 8.43621 5.09223 8.57847 4.87284 8.57847L0.438779 8.65046C0.333451 8.65092 0.232206 8.60975 0.157088 8.53591C0.0819704 8.46208 0.0390627 8.36156 0.0377075 8.25624V7.22785C0.0377075 6.2286 0.221103 5.30305 0.620461 4.4135C1.02153 3.52223 1.64028 2.77665 2.47499 2.1339C3.31141 1.49459 4.40321 0.961542 5.71098 0.605035C6.98447 0.17654 8.54762 0 10.3644 0H10.361Z" fill="#0A3871"/>
</g>
<defs>
<clipPath id="clip0_470001_73">
<rect width="21" height="32" fill="white"/>
</clipPath>
</defs>
</svg>
